<?xml version="1.0" encoding="UTF-8"?>
<svg width="80px" height="113px" viewBox="0 0 80 113" version="1.1" xmlns="http://www.w3.org/2000/svg" xmlns:xlink="http://www.w3.org/1999/xlink">
    <title>logo</title>
    <g id="Page-1" stroke="none" stroke-width="1" fill="none" fill-rule="evenodd">
        <g id="logo">
            <path d="M80,0 L80,109 C80,111.209139 78.209139,113 76,113 L4,113 C1.790861,113 0,111.209139 0,109 L0,0 L80,0 Z M39.998,52.823 C27.285,52.823 16.976,63.131 16.976,75.846 C16.976,88.558 27.285,98.867 39.998,98.867 C52.717,98.867 63.023,88.559 63.023,75.846 C63.023,63.132 52.717,52.823 39.998,52.823 Z" id="Combined-Shape" fill="#0698A7" fill-rule="nonzero"></path>
            <path d="M39.998,52.823 C27.285,52.823 16.976,63.131 16.976,75.846 C16.976,88.558 27.285,98.867 39.998,98.867 C52.717,98.867 63.023,88.559 63.023,75.846 C63.023,63.132 52.717,52.823 39.998,52.823 Z" id="Combined-Shape-path" fill="#FFFFFF"></path>
            <path d="M40.174,89.014 C39.844,89.014 39.638,89 39.56,88.994 C36.128,88.894 32.919,87.48 30.521,85.017 C28.121,82.546 26.797,79.288 26.797,75.841 C26.797,72.347 28.191,69.042 30.717,66.538 C33.226,64.05 36.506,62.683 39.955,62.683 L40.266,62.683 C42.616,62.683 44.882,63.597 46.638,65.249 C48.404,66.915 49.419,69.114 49.484,71.438 C49.578,74.647 48.822,77.102 47.232,78.741 C45.464,80.559 43.094,80.942 41.416,80.942 C40.839,80.942 40.245,80.897 39.657,80.807 C37.428,80.467 35.615,78.239 35.615,75.84 C35.615,73.447 37.562,71.496 39.956,71.496 C41.83,71.496 43.48,72.695 44.065,74.478 C44.133,74.687 44.327,74.828 44.549,74.828 C44.765,74.828 44.96,74.685 45.029,74.476 C45.589,72.742 45.426,70.921 44.594,69.48 C43.658,67.855 42.007,66.959 39.955,66.959 C35.059,66.959 31.075,70.943 31.075,75.84 C31.075,80.651 35.607,85.033 40.581,85.033 C44.262,85.033 47.647,83.814 50.098,81.605 C52.498,79.443 53.823,76.533 53.823,73.402 L53.823,73.341 C53.823,64.816 47.831,58.138 40.166,58.138 L40.046,58.14 C30.29,58.14 22.349,66.079 22.349,75.839 C22.349,85.597 30.29,93.536 40.046,93.536 C47.634,93.536 54.374,88.72 56.804,81.552 C56.882,81.316 56.783,81.058 56.562,80.941 C56.49,80.902 56.406,80.88 56.324,80.88 C56.17,80.88 56.019,80.95 55.926,81.081 C50.307,88.441 42.449,89.014 40.174,89.014 Z" id="Path" fill="#0698A7" fill-rule="nonzero"></path>
        </g>
    </g>
</svg>