<?xml version="1.0" encoding="utf-8"?>
<!-- Generator: Adobe Illustrator 23.1.1, SVG Export Plug-In . SVG Version: 6.00 Build 0)  -->
<svg version="1.1" id="Layer_1" xmlns="http://www.w3.org/2000/svg" xmlns:xlink="http://www.w3.org/1999/xlink" x="0px" y="0px"
	 viewBox="0 0 120 120" style="enable-background:new 0 0 120 120;" xml:space="preserve">
<style type="text/css">
	.st0{fill:#0099A8;}
	.st1{fill:#FFFFFF;}
</style>
<g>
	<circle class="st0" cx="60" cy="60" r="60"/>
	<path class="st1" d="M59.98,17.95c-23.44,0-42.43,19-42.43,42.43c0,23.44,19,42.43,42.43,42.43c23.43,0,42.43-19,42.43-42.43
		C102.41,36.95,83.42,17.95,59.98,17.95z M60.07,93c-17.99,0-32.62-14.63-32.62-32.62c0-17.99,14.63-32.62,32.62-32.62l0.22,0
		c14.12,0,25.17,12.31,25.17,28.02l0,0.12c0,5.77-2.44,11.13-6.86,15.12c-4.52,4.08-10.75,6.32-17.54,6.32
		c-9.17,0-17.52-8.08-17.52-16.94c0-9.03,7.34-16.37,16.37-16.37c3.79,0,6.83,1.65,8.56,4.64c1.53,2.66,1.82,6.01,0.8,9.21
		c-0.12,0.39-0.48,0.65-0.89,0.65c-0.41,0-0.77-0.26-0.89-0.64c-1.08-3.29-4.13-5.5-7.58-5.5c-4.41,0-8,3.59-8,8.01
		c0,4.42,3.34,8.52,7.45,9.15c1.09,0.16,2.18,0.25,3.25,0.25c3.09,0,7.46-0.71,10.71-4.06c2.93-3.02,4.33-7.55,4.15-13.46
		c-0.12-4.29-1.99-8.34-5.25-11.41c-3.24-3.05-7.41-4.73-11.74-4.73l-0.58-0.01c-6.35,0-12.4,2.52-17.03,7.11
		c-4.66,4.62-7.23,10.71-7.23,17.15c0,6.35,2.44,12.35,6.87,16.91c4.42,4.54,10.33,7.15,16.66,7.33c0.14,0.01,0.52,0.03,1.13,0.03
		c4.19,0,18.67-1.05,29.02-14.61c0.19-0.24,0.46-0.36,0.74-0.36c0.15,0,0.3,0.03,0.44,0.11c0.41,0.21,0.59,0.69,0.45,1.12
		C86.47,84.12,74.06,93,60.07,93z"/>
</g>
</svg>
